# xmcd
#
# Track frame offsets: 
#        225
#        17327
#        33939
#        48473
#        68543
#        82433
#        102273
#        119208
#        140030
#        164593
#        182534
#        196729
#
# Disc length: 2922 seconds
#
# Revision: 0
# Processed by: cddbd v1.5.1PL0 Copyright (c) Steve Scherf et al.
# Submitted via: ExactAudioCopy v0.95a5
#
DISCID=a70b670c
DTITLE=Eddie Shaw - Too Many Highways
DYEAR=1900
DGENRE=Blues
TTITLE0=Built For Comfort
TTITLE1=Sack Full of Blues
TTITLE2=Since I Met You Baby
TTITLE3=Playing The Game
TTITLE4=Goin' Back To Greenville
TTITLE5=Ode to Howlin' Wolf
TTITLE6=Can't Stand to See You Go
TTITLE7=Too Many Highways
TTITLE8=Rainy Night In Georgia
TTITLE9=Ain't Superstitious
TTITLE10=I'm Tired
TTITLE11=What Came First
EXTD=
EXTT0=
EXTT1=
EXTT2=
EXTT3=
EXTT4=
EXTT5=
EXTT6=
EXTT7=
EXTT8=
EXTT9=
EXTT10=
EXTT11=
PLAYORDER=
